<svg version="1.1" xmlns="http://www.w3.org/2000/svg" xmlns:xlink="http://www.w3.org/1999/xlink" width="289.48959" height="300.39832" viewBox="0,0,289.48959,300.39832"><g transform="translate(-81.45135,-37.77131)"><g data-paper-data="{&quot;isPaintingLayer&quot;:true}" fill-rule="nonzero" stroke-miterlimit="10" stroke-dasharray="" stroke-dashoffset="0" style="mix-blend-mode: normal"><path d="M82.46177,195.14034c-0.47337,-39.65903 15.21212,-75.77846 40.9227,-102.10817c25.71057,-26.33104 61.44623,-42.87101 101.10526,-43.34305c39.65903,-0.47204 75.7798,15.21212 102.1095,40.9227c26.3297,25.71057 42.86968,61.44756 43.34171,101.10659c0.47204,39.65903 -15.21212,75.77846 -40.9227,102.1095c-25.71057,26.3297 -61.44623,42.86968 -101.10526,43.34171c-39.65903,0.47204 -75.7798,-15.21212 -102.1095,-40.9227c-26.3297,-25.71057 -42.86968,-61.44756 -43.34171,-101.10659z" fill="#9966ff" stroke="#9966ff" stroke-width="2" stroke-linecap="round" stroke-linejoin="round"/><path d="M188.40773,123.88165c8.75874,0 16.70178,3.55698 22.45179,9.307c5.75001,5.75001 9.307,13.69305 9.307,22.45179c0,8.75874 -3.55698,16.70178 -9.307,22.45179c-5.75001,5.75001 -13.69305,9.307 -22.45179,9.307c-8.75874,0 -16.70178,-3.55698 -22.45179,-9.307c-5.75001,-5.75001 -9.307,-13.69305 -9.307,-22.45179c0,-8.75874 3.55698,-16.70178 9.307,-22.45179c5.75001,-5.75001 13.69305,-9.307 22.45179,-9.307z" fill="#000000" stroke="none" stroke-width="1" stroke-linecap="butt" stroke-linejoin="miter"/><path d="M275.99511,124.55025c8.75874,0 16.70178,3.55698 22.45179,9.307c5.75001,5.75001 9.307,13.69305 9.307,22.45179c0,8.75874 -3.55698,16.70178 -9.307,22.45179c-5.75001,5.75001 -13.69305,9.307 -22.45179,9.307c-8.75874,0 -16.70178,-3.55698 -22.45179,-9.307c-5.75001,-5.75001 -9.307,-13.69305 -9.307,-22.45179c0,-8.75874 3.55698,-16.70178 9.307,-22.45179c5.75001,-5.75001 13.69305,-9.307 22.45179,-9.307z" fill="#000000" stroke="none" stroke-width="1" stroke-linecap="butt" stroke-linejoin="miter"/><path d="M173.3641,254.25981l106.97696,3.34303" fill="none" stroke="#000000" stroke-width="2" stroke-linecap="round" stroke-linejoin="miter"/><text transform="translate(176.86244,111.59323) scale(1.69706,1.69706)" font-size="40" xml:space="preserve" fill="#000000" fill-rule="nonzero" stroke="none" stroke-width="1" stroke-linecap="butt" stroke-linejoin="miter" stroke-miterlimit="10" stroke-dasharray="" stroke-dashoffset="0" font-family="Sans Serif" font-weight="normal" text-anchor="start" style="mix-blend-mode: normal"><tspan x="0" dy="0">len</tspan></text></g></g></svg>